<?xml version="1.0" encoding="UTF-8"?>
<svg width="57px" height="50px" viewBox="0 0 57 50" version="1.1" xmlns="http://www.w3.org/2000/svg" xmlns:xlink="http://www.w3.org/1999/xlink">
    <title>virus icon</title>
    <g id="Symbols" stroke="none" stroke-width="1" fill="none" fill-rule="evenodd">
        <g id="Header/Main" transform="translate(-6.000000, -9.000000)" fill-rule="nonzero">
            <g id="Group-24">
                <g id="virus-icon" transform="translate(6.700109, 9.000000)">
                    <ellipse id="Oval" fill="#1ABEC5" cx="45.9102961" cy="8.36540028" rx="3.83476937" ry="3.43406593"></ellipse>
                    <path d="M42.7660641,11.1805851 C41.4943104,10.0417421 41.1138572,8.32899902 41.8021104,6.8410113 C42.4903636,5.35302358 44.1117824,4.3828276 45.9102961,4.3828276 C47.7088098,4.3828276 49.3302285,5.35302358 50.0184818,6.8410113 C50.706735,8.32899902 50.3262818,10.0417421 49.0545281,11.1805851 C47.3169884,12.73342 44.5036037,12.73342 42.7660641,11.1805851 L42.7660641,11.1805851 Z M48.1894041,6.32394174 C46.9305523,5.19670183 44.8896219,5.19674056 43.6308235,6.32402826 C42.3720251,7.45131596 42.3720251,9.2789851 43.6308235,10.4062728 C44.8896219,11.5335605 46.9305523,11.5335992 48.1894041,10.4063593 C49.4464861,9.27836783 49.4464861,7.45193323 48.1894041,6.32394174 L48.1894041,6.32394174 Z" id="Shape" fill="#000000"></path>
                    <path d="M28.5843897,22.7615042 L27.8414206,21.8913743 C28.8454329,21.2040616 32.9730392,17.622643 39.4684413,11.8074582 C41.0782078,10.3658998 41.5963897,7.32294274 41.6014098,7.29247321 L42.8118024,7.45131437 C42.7889333,7.59067501 42.2317064,10.8823833 40.3335653,12.5821835 C35.7162241,16.7190466 29.9247462,21.8464193 28.5843897,22.7615042 Z" id="Path" fill="#000000"></path>
                    <path d="M29.8338273,23.8803853 C30.8590355,22.6815841 36.5830214,17.4962694 41.2014782,13.3594063 C43.097946,11.6611046 46.7748623,11.1616041 46.9304842,11.1401256 L47.1084175,12.2235421 C47.0743926,12.2280376 43.6758108,12.6920736 42.0660444,14.1336321 C35.5728734,19.9483174 31.5735576,23.6446211 30.8077193,24.543722 L29.8338273,23.8803853 Z" id="Path" fill="#000000"></path>
                    <ellipse id="Oval" fill="#1ABEC5" cx="22.4961704" cy="2.27399169" rx="2.18818913" ry="1.95954046"></ellipse>
                    <path d="M20.4094981,3.56470098 C20.2580849,3.36918284 20.1422977,3.15337609 20.0664605,2.92534034 C19.6638314,1.72352791 20.4253791,0.456976818 21.7674248,0.0964192953 C23.1094705,-0.264138227 24.5238089,0.41783361 24.9264381,1.61964604 L24.9264381,1.61964604 C25.2860416,2.69083185 24.7216098,3.83705612 23.5958778,4.32169173 C22.4701458,4.80632733 21.1179908,4.48520724 20.4083825,3.56470098 L20.4094981,3.56470098 Z M24.0094401,1.33592975 C23.4640196,0.627648555 22.4020305,0.414150901 21.5708701,0.845690273 C20.7397097,1.27722964 20.4189746,2.20863916 20.834389,2.9844197 C21.2498034,3.76020025 22.2616247,4.11938457 23.1577622,3.80918912 C24.0538998,3.49899367 24.5328991,2.62376606 24.2576543,1.79946622 L24.2576543,1.79946622 C24.2021896,1.63485283 24.1184491,1.47897415 24.0094401,1.33742825 L24.0094401,1.33592975 Z" id="Shape" fill="#000000"></path>
                    <path d="M25.1964058,14.061704 C25.0848489,13.4243413 24.1923935,10.598667 22.686375,6.10516052 C22.3121015,4.98927641 20.7452844,3.93283285 20.7296665,3.92234334 L21.1463316,3.42284284 C21.2182858,3.47279289 22.9139511,4.61215353 23.3540432,5.92534034 C24.4255475,9.12464104 25.7335524,13.1141515 25.8858276,13.9672984 L25.1964058,14.061704 Z" id="Path" fill="#000000"></path>
                    <path d="M26.8507951,13.7045611 C26.454768,12.9183473 25.094889,8.94182386 24.0239425,5.74452116 C23.5838505,4.43083485 24.2983726,2.64212356 24.3290507,2.56669898 L24.9850055,2.7799857 C24.978312,2.79696871 24.3190106,4.45081487 24.6921685,5.56470098 C26.198187,10.0602055 27.1904859,12.8574083 27.4872273,13.4473184 L26.8507951,13.7045611 Z" id="Path" fill="#000000"></path>
                    <ellipse id="Oval" fill="#1ABEC5" cx="10.4056306" cy="41.2295361" rx="3.83476937" ry="3.43406593"></ellipse>
                    <path d="M9.71620883,45.1616041 C7.68666747,44.8752934 6.14070438,43.3806821 5.97704691,41.5466448 C5.81338943,39.7126076 7.07468814,38.0171104 9.02770195,37.4458106 C10.9807158,36.8745108 13.1164722,37.5762941 14.1933746,39.143187 C15.2702769,40.7100799 15.007675,42.7337365 13.5582294,44.037728 C12.5550386,44.9454987 11.1243576,45.3640046 9.71620883,45.1616041 Z M10.9081946,38.3798858 C10.7389963,38.3561586 10.5679656,38.3444671 10.3967061,38.3449081 C9.54172627,38.3442869 8.72201728,38.6500685 8.12038698,39.1940716 L8.12038698,39.1940716 C7.0711247,40.1397805 6.88204535,41.6061178 7.66301137,42.7410846 C8.44397739,43.8760515 9.99159876,44.3840641 11.4066474,43.9699473 C12.821696,43.5558306 13.7356453,42.3274346 13.6174552,40.998505 C13.4992651,39.6695755 12.3797163,38.5862108 10.9093102,38.3778878 L10.9081946,38.3798858 Z" id="Shape" fill="#000000"></path>
                    <path d="M13.5069132,42.1361296 C13.5292246,41.9967689 14.0764113,38.7035621 15.9695324,36.9992664 C20.5846425,32.8444213 26.3526934,27.7085571 27.6880298,26.7914742 L28.4337879,27.6596061 C27.8542496,28.0592065 25.5790461,29.9013643 16.8474854,37.7620037 C15.22991,39.2170486 14.7228837,42.2615042 14.7178637,42.2919737 L13.5069132,42.1361296 Z" id="Path" fill="#000000"></path>
                    <path d="M9.37707577,38.4573084 L9.19579576,37.3738918 C9.22982062,37.3693963 12.6267291,36.8973683 14.2320332,35.4518139 C20.7084707,29.6211445 24.6966308,25.9113543 25.4613535,25.0122534 L26.4352455,25.6755901 C25.4139418,26.8783873 19.707805,32.07569 15.0993884,36.2240416 C13.2068251,37.9303353 9.53269768,38.4363294 9.37707577,38.4573084 Z" id="Path" fill="#000000"></path>
                    <ellipse id="Oval" fill="#1ABEC5" cx="45.2186431" cy="41.0232424" rx="3.83476937" ry="3.43406593"></ellipse>
                    <path d="M40.997329,42.2759897 C40.2685694,40.3031049 41.3566645,38.1601106 43.4959269,37.3550221 C45.6351892,36.5499336 48.1060917,37.3535371 49.1698717,39.2003405 C50.2336517,41.047144 49.5325137,43.315987 47.5598453,44.4102953 C45.5871768,45.5046035 43.0064722,45.0563135 41.6337613,43.3808848 L41.6337613,43.3808848 C41.3580987,43.0448243 41.1433184,42.6719493 40.997329,42.2759897 L40.997329,42.2759897 Z M48.2792074,40.1181475 C47.8806586,39.034954 46.8072974,38.2634442 45.5401319,38.1493569 C44.2729664,38.0352696 43.0495854,38.5999958 42.418226,39.5904632 C41.7868665,40.5809306 41.8659061,41.8114303 42.6199245,42.7305351 L42.6199245,42.7305351 C43.5580987,43.8757995 45.2872301,44.239687 46.6968325,43.5885013 C48.106435,42.9373156 48.7775647,41.4645935 48.2792074,40.1161495 L48.2792074,40.1181475 Z" id="Shape" fill="#000000"></path>
                    <path d="M31.958429,23.5022634 L33.0316066,22.9767889 C33.6384763,23.9702954 36.9645461,28.1715941 42.3973685,34.7989667 C43.7438606,36.4423234 47.0236342,37.3629028 47.0565435,37.3718938 L46.6973302,38.4208448 C46.5472861,38.3793863 42.9992181,37.3863793 41.4106474,35.4483174 C37.5457577,30.7300356 32.7683323,24.8284372 31.958429,23.5022634 Z" id="Path" fill="#000000"></path>
                    <path d="M29.6519895,25.1975681 L30.533847,24.4383274 C31.7051948,25.5272384 36.5545744,31.3773883 40.4189063,36.093672 C42.0097081,38.034731 42.0024569,41.3639018 42.001415,41.5052604 L40.7781197,41.4977679 C40.7781197,41.4667989 40.7825819,38.3883773 39.435532,36.7450207 C34.0010363,30.1131525 30.528827,26.0132524 29.6519895,25.1975681 Z" id="Path" fill="#000000"></path>
                    <path d="M16.3845242,11.3464193 C16.0582991,11.6385698 15.5676726,11.7259719 15.1414272,11.5678691 C14.7151817,11.4097664 14.4372608,11.0372953 14.4372608,10.6241415 C14.4372608,10.2109878 14.7151817,9.83851664 15.1414272,9.68041393 C15.5676726,9.52231123 16.0582991,9.60971323 16.3845242,9.90186382 C16.8290367,10.3011137 16.8290367,10.9471693 16.3845242,11.3464193 Z" id="Path" fill="#FFFFFF"></path>
                    <path d="M23.2932447,17.4398259 L24.0367716,16.5691965 C23.8276023,16.4263393 22.8955442,15.6935721 18.7562244,11.9867789 C18.2118266,11.4997659 17.936281,10.4538119 17.8749247,10.088677 L17.8648846,10.088677 L17.8648846,10.088677 C17.5758077,9.08967123 16.5245821,8.42281079 15.3762818,8.5099951 C14.2279814,8.5971794 13.3171325,9.41300966 13.2199973,10.4413385 C13.1228622,11.4696672 13.8677386,12.4109188 14.9833691,12.6695961 L14.9833691,12.6785871 C15.3866474,12.7320336 16.5518595,12.9782874 17.1029508,13.4677979 C21.2383661,17.1775881 22.0566361,18.0122534 22.2178359,18.2000656 L23.1900545,17.5342315 C23.0427994,17.3629028 22.6964151,17.0212444 22.2245293,16.5761895 C22.7198421,16.9977679 23.1013667,17.3084572 23.2932447,17.4398259 Z M14.7702954,11.3459198 C14.3252745,10.9468668 14.3255964,10.3003507 14.7710144,9.90165316 C15.2164324,9.50295562 15.9383872,9.50295562 16.3838052,9.90165316 C16.8292232,10.3003507 16.829545,10.9468668 16.3845242,11.3459198 C15.9388405,11.7450621 15.216287,11.7452857 14.7702954,11.3464193 L14.7702954,11.3459198 Z" id="Shape" fill="#000000"></path>
                    <polygon id="Path" fill="#000000" points="17.9243709 10.1286995 17.8992455 10.1286995 17.8992455 10.1286995"></polygon>
                    <path d="M2.96255245,21.2505152 C2.29873844,21.1506266 1.7822074,20.6793788 1.68303679,20.0831721 C1.58386618,19.4869654 1.92460551,18.9013659 2.52709315,18.6325647 C3.12958078,18.3637634 3.85682251,18.4728808 4.32856702,18.9028628 C4.67681172,19.2221351 4.83444297,19.6708421 4.75304113,20.1111545 C4.60784643,20.8673629 3.80776415,21.3764878 2.96255245,21.2505152 L2.96255245,21.2505152 Z" id="Path" fill="#FFFFFF"></path>
                    <path d="M17.7594633,22.1660996 C17.4454305,22.0781875 16.760471,21.9453204 15.8457042,21.7844812 C16.7671644,21.9013643 17.4632796,21.9762894 17.7929304,21.9867789 L17.8487088,20.4952704 C17.0878906,20.4722934 13.4795818,19.9792864 7.94858931,19.1426231 C6.91389881,18.9872784 5.68231034,18.0152504 5.29911229,17.6616041 L5.29018774,17.6695961 L5.29018774,17.6695961 C4.85177659,17.3379278 4.32139139,17.1185675 3.75516442,17.034731 C2.41713239,16.8328324 1.08134399,17.4037168 0.41502467,18.462228 C-0.251294646,19.5207391 -0.105149222,20.8397148 0.780461395,21.7603275 C1.66607201,22.6809402 3.1010911,23.0056216 4.36872752,22.5721935 L4.37486315,22.5831825 C4.86906034,22.3564093 6.37842556,21.8034622 7.42036726,21.9608049 C15.2812261,23.1481176 16.926133,23.4972684 17.2686128,23.5911745 L17.7594633,22.1660996 Z M2.96255245,21.2505152 C2.29873844,21.1506266 1.7822074,20.6793788 1.68303679,20.0831721 C1.58386618,19.4869654 1.92460551,18.9013659 2.52709315,18.6325647 C3.12958078,18.3637634 3.85682251,18.4728808 4.32856702,18.9028628 C4.67681172,19.2221351 4.83444297,19.6708421 4.75304113,20.1111545 C4.60784643,20.8673629 3.80776415,21.3764878 2.96255245,21.2505152 L2.96255245,21.2505152 Z" id="Shape" fill="#000000"></path>
                    <polygon id="Rectangle" fill="#000000" transform="translate(10.291212, 18.939664) rotate(-45.000000) translate(-10.291212, -18.939664) " points="10.2865726 18.9367734 10.2955595 18.9372688 10.295851 18.9425553 10.286864 18.9420598"></polygon>
                    <path d="M17.9836927,43.9303353 C17.8770689,43.8820092 17.7797239,43.8187791 17.695318,43.7430227 C17.2734067,43.3661216 17.2461489,42.7620302 17.6327272,42.3558741 C18.0193055,41.949718 18.6896845,41.878118 19.1720891,42.1914621 C19.6544938,42.5048062 19.7866551,43.0976933 19.4755654,43.5528828 C19.1644757,44.0080723 18.5147779,44.1724496 17.9836927,43.9303353 L17.9836927,43.9303353 Z" id="Path" fill="#FFFFFF"></path>
                    <path d="M20.6086272,43.9812844 C20.800738,43.6454804 20.8878533,43.2693986 20.8607459,42.8928728 L20.870786,42.8928728 C20.8027363,42.533732 20.7034506,41.4648009 21.0570861,40.8409248 C23.7132565,36.1740916 24.3480154,35.2205451 24.4947128,35.0272384 L23.4879115,34.4038618 C23.3506965,34.5821835 23.0941155,34.9852804 22.7627915,35.5282374 C23.0589751,34.9707949 23.2726066,34.547718 23.3529276,34.3434223 L22.199429,33.9792864 C22.1124146,34.2010646 21.6221219,35.2205451 18.9642781,39.8918738 C18.6145471,40.5062594 17.5882234,41.0652005 17.2217589,41.2285371 L17.2256634,41.2360297 C17.0818439,41.3177858 16.9484787,41.41343 16.8279629,41.5212444 C16.1679308,42.1124561 15.95814,42.9960961 16.2924965,43.7766319 C16.626853,44.5571676 17.442755,45.0884587 18.3749904,45.1326899 C19.3072259,45.1769211 20.1812515,44.725811 20.6058383,43.9812844 L20.6086272,43.9812844 Z M17.9836927,43.9313343 C17.8770689,43.8830082 17.7797239,43.8197781 17.695318,43.7440217 C17.2734067,43.3671206 17.2461489,42.7630292 17.6327272,42.3568731 C18.0193055,41.950717 18.6896845,41.879117 19.1720891,42.1924611 C19.6544938,42.5058052 19.7866551,43.0986923 19.4755654,43.5538818 C19.1644757,44.0090713 18.5147779,44.1734486 17.9836927,43.9313343 L17.9836927,43.9313343 Z" id="Shape" fill="#000000"></path>
                    <path d="M32.1023374,47.574691 C32.1198376,47.1285946 32.0032957,46.6864701 31.7648777,46.2944712 C31.7421945,46.2558432 31.7176519,46.2178811 31.6912501,46.1805851 C31.6895377,46.1788258 31.6882129,46.1767919 31.6873456,46.1745911 C31.6756322,46.1591066 31.6644765,46.1431226 31.6522052,46.124641 C31.3298057,45.6665991 30.7971214,44.7330326 30.8227795,44.0127529 C30.9834214,39.6536121 31.13737,36.8199457 31.2466958,36.2350307 L29.8198827,36.0212444 C29.7730288,36.2739917 29.7233859,36.8174482 29.6754165,37.5402255 C29.6804365,36.8149507 29.6726275,36.2699957 29.6441805,36.0162494 L28.2039806,36.1446211 C28.2352165,36.4223433 28.2826282,37.7360297 28.0533787,43.9303353 C28.0232584,44.7465192 27.2373398,45.8054602 26.9378095,46.1451206 L26.946734,46.1516141 C26.6789968,46.5281607 26.5291228,46.9621977 26.5127776,47.4083573 L26.5127776,47.4083573 C26.4616404,48.7903106 27.6712012,49.9477282 29.2144075,49.9935221 C30.7576137,50.0393159 32.0500845,48.9561447 32.1012218,47.5741915 L32.1023374,47.574691 Z M29.2637714,48.6990666 C28.5192124,48.676366 27.9360948,48.1175789 27.9611659,47.450812 C27.986237,46.7840452 28.6100081,46.26165 29.3545859,46.2838522 C30.0991636,46.3060543 30.6827475,46.864451 30.658233,47.5312344 C30.6321772,48.1981066 30.0085323,48.720396 29.2637714,48.6990666 L29.2637714,48.6990666 Z" id="Shape" fill="#000000"></path>
                    <path d="M31.8308357,46.3001026 L31.8165923,46.3055851 C31.7779768,46.2631874 31.7361961,46.2215208 31.6912501,46.1805851 C31.7415769,46.2260895 31.7900046,46.2661114 31.8308357,46.3001026 Z" id="Path" fill="#000000"></path>
                    <path d="M55.7669084,27.6830826 C55.9002488,26.9331167 55.5744442,26.1766904 54.9132621,25.701157 C54.25208,25.2256237 53.3569869,25.1039598 52.5680135,25.3823833 L52.5635512,25.3738918 C52.2021068,25.5432225 51.0988088,25.9593064 50.3324127,25.8504153 C44.5515327,25.0307349 43.3411401,24.7854802 43.0890214,24.7185471 L42.7398482,25.7674982 C42.9724444,25.8294362 43.481144,25.9238418 44.1594101,26.036729 C43.4755662,25.9563094 42.9601731,25.9048608 42.7164213,25.8993663 L42.688532,26.9952704 C43.2463167,27.0072584 45.8996982,27.3449208 49.9676215,27.9228428 C50.7284398,28.0307349 51.6409754,28.7330326 51.9248878,28.9927729 L51.9310235,28.9872784 L51.9310235,28.9872784 C52.0626972,29.0844162 52.205994,29.1681781 52.3582865,29.2370287 C53.0330463,29.5434738 53.8306911,29.5427863 54.504791,29.2351785 C55.1788908,28.9275708 55.6483104,28.3500668 55.768024,27.6810846 L55.7669084,27.6830826 Z M53.2535308,28.3614043 C52.7320262,28.2879107 52.3347835,27.9038366 52.2928513,27.4325713 C52.2509192,26.961306 52.5752325,26.5257458 53.0771608,26.3792257 C53.5790891,26.2327057 54.1277398,26.4134353 54.4040009,26.8162967 C54.6802619,27.219158 54.6120901,27.7390932 54.2391363,28.073692 C53.9814953,28.3061137 53.6146328,28.4132061 53.2535308,28.3614043 L53.2535308,28.3614043 Z" id="Shape" fill="#000000"></path>
                    <polygon id="Rectangle" fill="#000000" transform="translate(51.926772, 28.992088) rotate(-45.000000) translate(-51.926772, -28.992088) " points="51.9221333 28.9891972 51.9311202 28.9896927 51.9314116 28.9949791 51.9224247 28.9944837"></polygon>
                    <path d="M49.6703223,17.4907749 C49.5880915,17.5241683 49.494398,17.5268707 49.4099379,17.4982852 C49.3254779,17.4696996 49.2572014,17.4121783 49.2201901,17.3384273 C49.1529869,17.2043839 49.2021805,17.0464841 49.3371679,16.9629565 C49.4721554,16.8794289 49.654482,16.8940684 49.7707236,16.9977679 C49.7998243,17.0239213 49.8234405,17.0545443 49.8404466,17.0881775 C49.8779808,17.1616519 49.8807966,17.2455851 49.8482556,17.3209447 C49.8169339,17.3967195 49.7527729,17.4579585 49.6703223,17.4907749 L49.6703223,17.4907749 Z" id="Path" fill="#FFFFFF"></path>
                    <path d="M50.9922719,17.7095561 C51.2815306,17.0443026 50.9648608,16.2907336 50.2576075,15.9612989 C49.5503541,15.6318641 48.6795524,15.8323151 48.2373736,16.4263393 L48.2334691,16.4263393 C48.1269322,16.598667 47.7956082,17.0152504 47.5083491,17.1311345 C44.5459549,18.3269387 43.9792457,18.5092564 43.8766133,18.5372285 L44.0885715,19.1705951 L44.1594101,19.3828828 L44.2882584,19.568697 L44.6787076,20.1311345 C44.7701843,20.0811845 45.2984063,19.8219437 48.2608005,18.626639 C48.5463863,18.5117539 49.1041709,18.5632025 49.3311893,18.6071585 L49.3311893,18.6041615 L49.3311893,18.6041615 C50.0483684,18.6864776 50.7348777,18.3171997 50.9905986,17.7115541 L50.9922719,17.7095561 Z M49.6703223,17.4907749 C49.5880915,17.5241683 49.494398,17.5268707 49.4099379,17.4982852 C49.3254779,17.4696996 49.2572014,17.4121783 49.2201901,17.3384273 C49.1529869,17.2043839 49.2021805,17.0464841 49.3371679,16.9629565 C49.4721554,16.8794289 49.654482,16.8940684 49.7707236,16.9977679 C49.7998243,17.0239213 49.8234405,17.0545443 49.8404466,17.0881775 C49.8779808,17.1616519 49.8807966,17.2455851 49.8482556,17.3209447 C49.8169339,17.3967195 49.7527729,17.4579585 49.6703223,17.4907749 L49.6703223,17.4907749 Z" id="Shape" fill="#000000"></path>
                    <polygon id="Path" fill="#000000" points="44.2989957 19.5671985 44.2331307 19.5851805 44.1594101 19.3813843"></polygon>
                    <polygon id="Path" fill="#000000" points="44.1723786 19.3813843 44.032793 19.1990666 44.0942845 19.1690966"></polygon>
                    <polygon id="Path" fill="#000000" points="49.3736506 18.645936 49.3736506 18.645936 49.3736506 18.638436 49.3736506 18.638436"></polygon>
                    <path d="M11.5195266,33.8953703 C11.1084247,34.0829418 10.6116256,34.0302629 10.2608102,33.7619001 C9.90999487,33.4935374 9.77425934,33.0623472 9.91690356,32.669414 C10.0595478,32.2764808 10.4524767,31.9991961 10.912449,31.966871 C11.3724213,31.934546 11.8088415,32.1535471 12.018186,32.5217439 C12.303636,33.0244026 12.0804796,33.6391177 11.5195266,33.8953703 L11.5195266,33.8953703 Z" id="Path" fill="#FFFFFF"></path>
                    <path d="M13.0026759,34.128637 C13.1850715,33.8009647 13.8086747,32.8798858 14.4986543,32.5671985 C19.7122673,30.1885771 20.850148,29.7500157 21.0978043,29.6700956 L20.6917371,28.6396261 C20.4624876,28.7125531 19.9878129,28.9048608 19.3619785,29.1720936 C19.9705216,28.8753903 20.4217693,28.6446211 20.6242452,28.5227429 L19.9309189,27.6181475 C19.7144984,27.7520137 18.6480142,28.3199457 13.4332856,30.6990666 C12.7466528,31.0127529 11.5496469,30.9243413 11.1463686,30.8634023 L11.1463686,30.8728928 C10.7262529,30.8492524 10.3067853,30.9274165 9.93207148,31.0991665 C9.04631092,31.505207 8.53933224,32.3645027 8.66393157,33.2485807 C8.78853091,34.1326587 9.51802694,34.8522052 10.4886691,35.0484309 C11.4593113,35.2446566 12.4632494,34.8755424 12.999887,34.1251405 L13.0026759,34.128637 Z M10.4837205,32.0751905 C10.8948223,31.887619 11.3916214,31.9402979 11.7424368,32.2086607 C12.0932522,32.4770234 12.2289877,32.9082136 12.0863435,33.3011468 C11.9436993,33.69408 11.5507703,33.9713647 11.090798,34.0036898 C10.6308257,34.0360148 10.1944056,33.8170137 9.98506102,33.4488169 C9.69994245,32.946135 9.92302027,32.3316364 10.4837205,32.0751905 L10.4837205,32.0751905 Z" id="Shape" fill="#000000"></path>
                    <path d="M32.9579791,6.43133435 C32.658932,6.42923189 32.3728936,6.32153057 32.1620204,6.13163405 L32.1536536,6.12414154 C31.792886,5.7937761 31.7247027,5.28767123 31.9873811,4.88994992 C32.2500595,4.49222861 32.7781752,4.30195013 33.2752484,4.4259352 C33.7723217,4.54992027 34.114548,4.95728831 34.1098043,5.41934634 C34.1030603,5.98335032 33.5878079,6.43604862 32.9579791,6.43133435 L32.9579791,6.43133435 Z" id="Path" fill="#FFFFFF"></path>
                    <path d="M34.1499648,14.9807849 C34.1181711,14.7485172 34.0495636,13.6431226 34.1070154,8.39636931 C34.1148244,7.70655912 34.7562767,6.79796771 35.0033753,6.50476092 L34.9950085,6.49876692 C35.2115339,6.17612369 35.3271313,5.8072531 35.3296793,5.43083485 C35.34297,4.53743141 34.7284452,3.73274985 33.7938989,3.41982709 C32.8593527,3.10690433 31.806034,3.35312647 31.1615136,4.03516942 C30.5169932,4.71721238 30.4200647,5.68820217 30.9192762,6.46180388 L30.9103517,6.46679888 C31.1507568,6.76350218 31.7721289,7.6840816 31.7648777,8.37339229 C31.7241594,12.0622035 31.6533208,14.4613044 31.5763465,14.9558099 L32.787297,15.1111545 C32.8218796,14.8983673 32.8508844,14.4433224 32.8754269,13.8379278 C32.8876982,14.4842814 32.9079644,14.9091898 32.9362254,15.112653 L34.1499648,14.9807849 Z M32.1698294,4.6800856 C32.6187295,4.28566678 33.3393456,4.29079451 33.78119,4.69155163 C34.2230343,5.09230876 34.2195638,5.73763894 33.7734295,6.13456645 C33.3272953,6.53149396 32.6066575,6.53040595 32.1620204,6.13213355 L32.1536536,6.12464104 C31.7129634,5.72163283 31.7202031,5.0750989 32.1698294,4.6800856 L32.1698294,4.6800856 Z" id="Shape" fill="#000000"></path>
                    <ellipse id="Oval" fill="#1ABEC5" cx="29.7339839" cy="23.4568089" rx="15.4121473" ry="13.8016983"></ellipse>
                    <path d="M17.9708637,33.9907749 C11.4849439,28.1820836 11.4849439,18.7310346 17.9708637,12.9228428 C24.4567834,7.11465103 35.0111843,7.11415153 41.497104,12.9228428 C47.9830238,18.7315341 47.9835816,28.1820836 41.497104,33.9907749 C35.0106265,39.7994662 24.4573412,39.7989667 17.9708637,33.9907749 Z M39.7674139,14.4717939 C34.2347481,9.51774793 25.2332196,9.51774793 19.7011116,14.4717939 C14.1690036,19.4258398 14.1684458,27.4872784 19.7011116,32.4413244 C25.2337774,37.3953703 34.2347481,37.3958698 39.7674139,32.4413244 C45.3000797,27.4867789 45.2995219,19.4258398 39.7674139,14.4717939 Z" id="Shape" fill="#000000"></path>
                    <path d="M25.669965,34.6336321 C25.3789102,34.382464 25.1920242,34.0500383 25.1400696,33.6910746 C24.9967189,32.5921735 26.2188251,31.5931725 27.9217416,31.4148508 C28.6870221,31.3349308 29.4378002,31.4373284 30.0368609,31.7025631 C30.7123381,32.0022634 31.1418323,32.4957699 31.2149021,33.05571 C31.3576949,34.1546111 30.1355888,35.1536121 28.4326723,35.3319337 C27.6673918,35.4118538 26.9166137,35.3094562 26.317553,35.0442215 C26.07825,34.9397195 25.8595295,34.8010444 25.669965,34.6336321 Z M29.8209983,32.8853803 C29.7247387,32.8021969 29.6141926,32.7333896 29.4935787,32.6815841 C29.1098228,32.5117539 28.588852,32.4458199 28.0639767,32.5002654 C27.0209194,32.609656 26.3013772,33.1496161 26.3549245,33.561704 C26.3789093,33.7465192 26.563536,33.9273383 26.8608352,34.0612045 C27.244591,34.2310346 27.7655619,34.2969687 28.2904372,34.2425232 L28.2904372,34.2425232 C29.3340523,34.1331325 30.0530367,33.5931725 29.9994893,33.1810846 C29.9793593,33.067182 29.9163856,32.962854 29.8209983,32.8853803 L29.8209983,32.8853803 Z" id="Shape" fill="#000000"></path>
                    <path d="M36.8317933,27.9403254 L36.8133865,27.9238418 C36.0587038,27.2395262 35.5672956,26.2839817 35.4306383,25.2335322 C35.2939811,24.1830826 35.5254617,23.1516141 36.0843619,22.3299357 C36.6722669,21.4653004 37.5479888,20.9313343 38.5503278,20.8269387 C39.5526668,20.7225431 40.5332522,21.062703 41.339251,21.7809847 C42.0944914,22.4648009 42.5853419,23.4203453 42.7225569,24.4712944 L42.7225569,24.4712944 C42.8597719,25.5202454 42.6271757,26.552713 42.0688333,27.3743913 C41.4809283,28.2390267 40.6046486,28.7729927 39.6028674,28.8778878 C38.6010862,28.9827829 37.6232897,28.6476181 36.8317933,27.9403254 Z M40.4540468,22.5392265 C39.9325181,22.0721935 39.3077994,21.8504153 38.6920051,21.9148508 C38.0762109,21.9792864 37.5167529,22.3294362 37.1302081,22.8998658 C36.7129852,23.5137519 36.5411876,24.2984672 36.6466089,25.106659 C36.7520301,25.9148508 37.1207258,26.6426231 37.6846461,27.1546111 C38.2117525,27.6356301 38.8392603,27.8539118 39.4595168,27.7909747 C40.0797733,27.7280376 40.634769,27.3763893 41.0213138,26.8059597 C41.4385367,26.1920736 41.6103343,25.4073583 41.504913,24.5991665 L41.504913,24.5991665 C41.3994917,23.7899757 41.0307961,23.062703 40.466318,22.5512145 L40.4540468,22.5392265 Z" id="Shape" fill="#000000"></path>
                    <path d="M22.9228757,15.9662994 C22.6896677,15.761482 22.5366618,15.49463 22.4866881,15.2055601 C22.416965,14.7764892 22.5937827,14.3354303 22.9714029,13.9947709 C23.332924,13.6804036 23.7977599,13.4784883 24.297257,13.4188468 L24.297257,13.4188468 C24.7949115,13.3482345 25.3047317,13.4228373 25.7514015,13.631634 C26.221614,13.8619038 26.5323,14.2390267 26.6020231,14.6675981 C26.6717462,15.0961695 26.4954863,15.537728 26.1178661,15.8783873 C25.3692595,16.5124007 24.2569391,16.6576682 23.3373096,16.2415242 C23.1851725,16.1680109 23.0456049,16.0753243 22.9228757,15.9662994 Z M24.4740747,14.5037619 C24.2366276,14.5300868 24.0144041,14.6225121 23.838758,14.7679977 C23.7779595,14.8229427 23.6781161,14.9323333 23.6970807,15.0482175 C23.7160454,15.1641016 23.846567,15.2435222 23.9201946,15.2804852 C24.3621836,15.4636939 24.883332,15.3954834 25.2482798,15.106659 C25.3090783,15.0522135 25.408364,14.9428229 25.3893993,14.8269387 C25.3704346,14.7110546 25.239913,14.631634 25.1662855,14.594671 C24.9519122,14.5000879 24.7097479,14.4682841 24.4740747,14.5037619 L24.4740747,14.5037619 Z" id="Shape" fill="#000000"></path>
                    <path d="M22.6417522,28.2590067 C21.9768422,27.6637823 21.7778373,26.7684701 22.1375455,25.9906081 C22.4972537,25.2127461 23.344825,24.7055462 24.2849857,24.7055462 C25.2251465,24.7055462 26.0727177,25.2127461 26.4324259,25.9906081 C26.7921341,26.7684701 26.5931293,27.6637823 25.9282193,28.2590067 C25.020085,29.070408 23.5498865,29.070408 22.6417522,28.2590067 L22.6417522,28.2590067 Z M25.0625375,26.0921735 C24.7476754,25.8100792 24.2740462,25.7256349 23.8625421,25.8782239 C23.4510379,26.0308129 23.1827155,26.3903788 23.1827155,26.7892265 C23.1827155,27.1880742 23.4510379,27.54764 23.8625421,27.700229 C24.2740462,27.852818 24.7476754,27.7683737 25.0625375,27.4862794 C25.4919789,27.1011406 25.4919789,26.4773123 25.0625375,26.0921735 Z" id="Shape" fill="#000000"></path>
                    <path d="M16.9333842,26.2450207 C16.6183738,25.9630592 16.5240761,25.5389206 16.6944699,25.1704154 C16.8648638,24.8019102 17.2663855,24.5616253 17.7117727,24.5616253 C18.1571599,24.5616253 18.5586816,24.8019102 18.7290755,25.1704154 C18.8994693,25.5389206 18.8051716,25.9630592 18.4901612,26.2450207 C18.0600825,26.6295887 17.3634629,26.6295887 16.9333842,26.2450207 Z M17.7979504,25.4702954 C17.7502226,25.427634 17.6729197,25.4276768 17.6252509,25.470391 C17.577582,25.5131053 17.577582,25.5823307 17.6252509,25.6250449 C17.6729197,25.6677591 17.7502226,25.6678019 17.7979504,25.6251405 C17.8454551,25.582291 17.8454551,25.513145 17.7979504,25.4702954 L17.7979504,25.4702954 Z" id="Shape" fill="#000000"></path>
                    <path d="M21.4308018,31.5117539 C21.1157913,31.2297924 21.0214936,30.8056538 21.1918875,30.4371486 C21.3622813,30.0686434 21.763803,29.8283586 22.2091902,29.8283586 C22.6545774,29.8283586 23.0560991,30.0686434 23.226493,30.4371486 C23.3968868,30.8056538 23.3025891,31.2297924 22.9875787,31.5117539 C22.5575,31.896322 21.8608804,31.896322 21.4308018,31.5117539 Z M22.2959257,30.7375282 C22.2609004,30.705935 22.2080501,30.6963875 22.1620866,30.7133496 C22.1161231,30.7303118 22.086129,30.770432 22.086129,30.8149507 C22.086129,30.8594695 22.1161231,30.8995896 22.1620866,30.9165518 C22.2080501,30.933514 22.2609004,30.9239664 22.2959257,30.8923733 C22.3434304,30.8495237 22.3434304,30.7803777 22.2959257,30.7375282 L22.2959257,30.7375282 Z" id="Shape" fill="#000000"></path>
                    <path d="M30.2532813,29.4982674 C29.8684928,29.153703 29.753376,28.6354945 29.9616109,28.1852862 C30.1698458,27.7350779 30.6604231,27.4415326 31.204583,27.4415326 C31.748743,27.4415326 32.2393203,27.7350779 32.4475552,28.1852862 C32.6557901,28.6354945 32.5406733,29.153703 32.1558847,29.4982674 C31.6301062,29.9679158 30.7790599,29.9679158 30.2532813,29.4982674 L30.2532813,29.4982674 Z M31.2907608,28.568697 C31.243033,28.5260356 31.16573,28.5260784 31.1180612,28.5687926 C31.0703924,28.6115069 31.0703924,28.6807323 31.1180612,28.7234465 C31.16573,28.7661607 31.243033,28.7662035 31.2907608,28.7235421 C31.3137183,28.7030216 31.3266193,28.6751669 31.3266193,28.6461196 C31.3266193,28.6170722 31.3137183,28.5892175 31.2907608,28.568697 Z" id="Shape" fill="#000000"></path>
                    <path d="M37.6913395,19.4288368 C37.1661451,18.9582682 37.1662977,18.1955519 37.6916804,17.7251518 C38.2170632,17.2547518 39.068777,17.2547518 39.5941597,17.7251518 C40.1195424,18.1955519 40.119695,18.9582682 39.5945007,19.4288368 C39.0686578,19.8988174 38.2171823,19.8988174 37.6913395,19.4288368 L37.6913395,19.4288368 Z M38.7282611,18.4997659 C38.6931734,18.468319 38.6403847,18.4589008 38.5945178,18.4759044 C38.548651,18.4929081 38.5187422,18.5329837 38.5187422,18.5774382 C38.5187422,18.6218928 38.548651,18.6619684 38.5945178,18.678972 C38.6403847,18.6959757 38.6931734,18.6865575 38.7282611,18.6551106 C38.7761362,18.6122031 38.7761362,18.5426734 38.7282611,18.4997659 L38.7282611,18.4997659 Z" id="Shape" fill="#000000"></path>
                    <path d="M30.2532813,17.1051605 C29.9382709,16.823199 29.8439732,16.3990604 30.014367,16.0305552 C30.1847609,15.66205 30.5862826,15.4217652 31.0316698,15.4217652 C31.477057,15.4217652 31.8785787,15.66205 32.0489726,16.0305552 C32.2193664,16.3990604 32.1250687,16.823199 31.8100583,17.1051605 C31.3799796,17.4897286 30.68336,17.4897286 30.2532813,17.1051605 Z M31.1178475,16.3309347 C31.0701197,16.2882734 30.9928168,16.2883162 30.945148,16.3310304 C30.8974792,16.3737446 30.8974792,16.44297 30.945148,16.4856842 C30.9928168,16.5283985 31.0701197,16.5284413 31.1178475,16.4857799 C31.1409431,16.4653253 31.1539396,16.4374459 31.1539396,16.4083573 C31.1539396,16.3792687 31.1409431,16.3513893 31.1178475,16.3309347 Z" id="Shape" fill="#000000"></path>
                    <path d="M25.2365663,20.0482175 C24.902241,19.7487762 24.9022713,19.263331 25.2366341,18.9639232 C25.5709969,18.6645155 26.1130862,18.6645155 26.447449,18.9639232 C26.7818118,19.263331 26.7818422,19.7487762 26.4475168,20.0482175 C26.113011,20.3474305 25.5710721,20.3474305 25.2365663,20.0482175 Z M26.1016903,19.2734922 C25.996757,19.1794119 25.83886,19.1512207 25.7016596,19.2020699 C25.5644593,19.2529191 25.4749901,19.3727893 25.4749901,19.5057599 C25.4749901,19.6387306 25.5644593,19.7586007 25.7016596,19.80945 C25.83886,19.8602992 25.996757,19.8321079 26.1016903,19.7380277 C26.2438356,19.6095377 26.2438356,19.4024817 26.1016903,19.2739917 L26.1016903,19.2734922 Z" id="Shape" fill="#000000"></path>
                    <path d="M29.7339839,13.8544113 C29.3996585,13.55497 29.3996888,13.0695248 29.7340516,12.770117 C30.0684144,12.4707093 30.6105038,12.4707093 30.9448666,12.770117 C31.2792293,13.0695248 31.2792597,13.55497 30.9449343,13.8544113 C30.6101748,14.1530748 30.0687433,14.1530748 29.7339839,13.8544113 L29.7339839,13.8544113 Z M30.5991078,13.079686 C30.4941745,12.9856058 30.3362775,12.9574145 30.1990772,13.0082637 C30.0618768,13.0591129 29.9724076,13.1789831 29.9724076,13.3119537 C29.9724076,13.4449244 30.0618768,13.5647946 30.1990772,13.6156438 C30.3362775,13.666493 30.4941745,13.6383017 30.5991078,13.5442215 C30.6686665,13.4825813 30.7078058,13.3985881 30.7078058,13.3109547 C30.7078058,13.2233214 30.6686665,13.1393282 30.5991078,13.077688 L30.5991078,13.079686 Z" id="Shape" fill="#000000"></path>
                    <path d="M35.2699964,15.4028628 C34.935671,15.1034216 34.9357013,14.6179763 35.2700641,14.3185686 C35.6044269,14.0191608 36.1465163,14.0191608 36.4808791,14.3185686 C36.8152419,14.6179763 36.8152722,15.1034216 36.4809468,15.4028628 C36.1461874,15.7015264 35.6047558,15.7015264 35.2699964,15.4028628 L35.2699964,15.4028628 Z M36.1351203,14.6281375 C35.9917528,14.4998742 35.7594313,14.499941 35.6161557,14.6282866 C35.47288,14.7566322 35.47288,14.9646779 35.6161557,15.0930235 C35.7594313,15.2213691 35.9917528,15.2214358 36.1351203,15.0931725 C36.2043287,15.0313338 36.2431762,14.9473527 36.2430718,14.859802 C36.2429669,14.7722513 36.2039187,14.6883449 36.1345626,14.626639 L36.1351203,14.6281375 Z" id="Shape" fill="#000000"></path>
                    <path d="M28.2173674,24.9697959 C26.882031,23.7734922 26.941714,21.7729927 28.3501202,20.5132524 C29.7585264,19.2535122 31.9907805,19.1985671 33.3266747,20.3943713 C34.6625689,21.5901755 34.6023282,23.5911745 33.193922,24.8509148 C31.7855157,26.110655 29.5532616,26.1656001 28.2173674,24.9697959 Z M32.4615507,21.1690966 C31.6031202,20.4003653 30.1467445,20.4538119 29.2152441,21.2879777 C28.2837438,22.1221435 28.2240608,23.4263393 29.0824914,24.1950706 C29.940922,24.9638019 31.3972976,24.9103553 32.328798,24.0761895 C33.2602983,23.2420237 33.3177501,21.9378279 32.4615507,21.1690966 L32.4615507,21.1690966 Z" id="Shape" fill="#000000"></path>
                    <path d="M34.3184158,33.1386271 C33.6390341,32.5302354 33.7533799,31.4757899 34.5777856,30.7375282 C35.4021913,29.9992664 36.5802325,29.8968688 37.2590564,30.5052604 C37.9378803,31.113652 37.8240922,32.1675981 36.9996865,32.9063593 C36.1752808,33.6451206 34.9972397,33.7465192 34.3184158,33.1386271 Z M36.3939324,31.2794862 C36.2305015,31.1331325 35.7892939,31.2015641 35.4456985,31.5117539 C35.1021032,31.8219437 35.0228978,32.2175481 35.1857709,32.3639018 C35.348644,32.5102554 35.7909672,32.4418239 36.1373515,32.131634 C36.4837357,31.8214442 36.5573633,31.4258398 36.3939324,31.2794862 L36.3939324,31.2794862 Z" id="Shape" fill="#000000"></path>
                    <path d="M18.1644149,21.3509148 C17.5709321,20.8194462 17.3132356,19.9463194 17.5742788,19.073692 C17.9407433,17.8484173 19.1918542,17.080685 20.363202,17.3619038 C21.5345497,17.6431226 22.1921778,18.8688968 21.8257133,20.0941715 L21.8257133,20.0941715 C21.458691,21.3194462 20.2081378,22.0871785 19.0340012,21.8054602 C18.7043525,21.7254752 18.4042899,21.5686281 18.1644149,21.3509148 Z M20.3771466,18.5941715 C20.2867769,18.5110678 20.1734112,18.4509142 20.0486114,18.4198458 C19.5360073,18.2969687 18.9441978,18.7260396 18.7551089,19.3569088 C18.5660199,19.9877779 18.8393343,20.6251405 19.3519384,20.7475182 C19.8645425,20.8698958 20.4569098,20.4413244 20.645441,19.8109547 C20.7887916,19.3334322 20.6671946,18.8534123 20.3771466,18.5941715 Z" id="Shape" fill="#000000"></path>
                </g>
            </g>
        </g>
    </g>
</svg>